<?xml version="1.0" encoding="UTF-8" standalone="no"?>
<svg
   xmlns:dc="http://purl.org/dc/elements/1.1/"
   xmlns:cc="http://creativecommons.org/ns#"
   xmlns:rdf="http://www.w3.org/1999/02/22-rdf-syntax-ns#"
   xmlns:svg="http://www.w3.org/2000/svg"
   xmlns="http://www.w3.org/2000/svg"
   xmlns:sodipodi="http://sodipodi.sourceforge.net/DTD/sodipodi-0.dtd"
   xmlns:inkscape="http://www.inkscape.org/namespaces/inkscape"
   sodipodi:docname="remjob2c.svg"
   inkscape:version="1.0 (4035a4fb49, 2020-05-01)"
   id="svg1442"
   version="1.1"
   viewBox="0 0 82.484047 79.195992"
   height="79.195992mm"
   width="82.484047mm">
  <defs
     id="defs1436" />
  <sodipodi:namedview
     fit-margin-bottom="0"
     fit-margin-top="0"
     fit-margin-right="-3.8"
     fit-margin-left="-1.6"
     width="840mm"
     inkscape:window-maximized="0"
     inkscape:window-y="4"
     inkscape:window-x="-7"
     inkscape:window-height="728"
     inkscape:window-width="1260"
     showgrid="false"
     inkscape:document-rotation="0"
     inkscape:current-layer="layer3"
     inkscape:document-units="mm"
     inkscape:cy="88.739346"
     inkscape:cx="616.80449"
     inkscape:zoom="0.35"
     inkscape:pageshadow="2"
     inkscape:pageopacity="0.0"
     borderopacity="1.0"
     bordercolor="#666666"
     pagecolor="#ffffff"
     id="base" />
  <metadata
     id="metadata1439">
    <rdf:RDF>
      <cc:Work
         rdf:about="">
        <dc:format>image/svg+xml</dc:format>
        <dc:type
           rdf:resource="http://purl.org/dc/dcmitype/StillImage" />
        <dc:title></dc:title>
      </cc:Work>
    </rdf:RDF>
  </metadata>
  <g
     transform="translate(-109.32465,-64.211524)"
     inkscape:label="main"
     id="layer3"
     inkscape:groupmode="layer">
    <g
       id="layer1-3"
       transform="translate(73.327389,-10.15951)">
      <g
         id="g838">
        <ellipse
           style="fill:#4caf50;fill-opacity:1;stroke:#4caf50;stroke-width:2.28892;stroke-opacity:1"
           id="path10"
           cx="77.863091"
           cy="113.72498"
           rx="39.297565"
           ry="37.453537" />
        <text
           xml:space="preserve"
           style="font-size:25.4px;line-height:1.25;font-family:Arial;-inkscape-font-specification:Arial;fill:#ffffff;stroke-width:0.237767"
           x="41.055443"
           y="114.97311"
           id="text837"
           transform="scale(0.98603138,1.0141665)"><tspan
             id="tspan834"
             x="41.055443"
             y="114.97311"
             style="font-style:normal;font-variant:normal;font-weight:bold;font-stretch:normal;font-size:22.5778px;font-family:Arial;-inkscape-font-specification:'Arial Bold';fill:#ffffff;stroke-width:0.237767">remjob</tspan></text>
        <path
           d="m 42.232286,127.32673 c 2.092304,-0.0914 4.187859,-0.0911 6.281838,-0.1063 3.446658,-0.0167 6.893107,-0.0516 10.339829,-0.0457 3.070685,0.0237 6.141476,0.0395 9.21226,0.0407 1.937758,-0.006 3.884109,0.0405 5.802857,0.32924 0.818928,0.10245 1.47197,0.53925 2.110679,1.02432 1.339059,1.01536 2.080448,2.52569 2.800139,3.99997 0.845592,1.73482 1.365385,3.59358 1.966203,5.41923 0.953654,2.89208 0.358984,2.07124 4.365924,-0.11856 0.141433,-1.04478 0.455726,-2.07223 0.773716,-3.07676 0.821356,-1.89952 2.356665,-3.32067 3.879051,-4.6628 3.706402,-3.17642 4.962006,-3.57673 9.158464,-5.74792 4.202764,-2.12442 8.576984,-3.8674 12.955794,-5.58607 0,0 2.52972,-1.98793 2.52972,-1.98793 v 0 c -4.39691,1.75814 -8.78008,3.55249 -13.04507,5.61664 -0.74712,0.38518 -4.077299,2.0942 -4.82262,2.50961 -1.672825,0.93235 -3.337126,1.88048 -4.985536,2.85535 -0.691639,0.40903 -1.371697,0.83891 -2.032981,1.29539 -0.898216,0.62003 -2.203117,1.69617 -3.065494,2.39133 -1.595234,1.41496 -3.184065,2.91476 -4.00145,4.93349 -0.192985,0.60788 -0.368287,1.21993 -0.555138,1.82967 -0.01987,0.0649 -0.241978,0.8188 -0.288722,0.91816 -0.03861,0.0821 -0.107706,0.14596 -0.161559,0.21893 1.123812,-0.58399 2.242457,-1.17804 3.371434,-1.75198 0.02698,-0.0137 -0.03258,0.0818 -0.05974,0.0684 -0.06424,-0.0316 -0.09905,-0.10474 -0.137144,-0.16539 -0.265316,-0.42234 -0.361942,-0.92159 -0.580686,-1.36583 -0.701609,-1.79591 -1.238604,-3.65864 -2.080749,-5.39934 -0.727956,-1.53122 -1.425112,-3.09663 -2.694866,-4.26752 -0.6838,-0.53512 -1.393786,-1.04282 -2.280312,-1.15481 -2.007735,-0.22841 -4.033245,-0.20831 -6.051449,-0.21033 -3.108116,0.001 -6.216237,0.0173 -9.324258,0.0407 -3.404814,0.006 -6.809348,-0.0286 -10.214099,-0.0457 -1.996374,-0.0147 -3.994769,-0.0113 -5.989222,-0.1063 0,0 -3.176815,2.30809 -3.176815,2.30809 z"
           id="path915"
           style="fill:#ff0000;stroke:#ff0000;stroke-width:0.4;stroke-miterlimit:4;stroke-dasharray:none;stroke-opacity:1" />
      </g>
    </g>
  </g>
</svg>
