<?xml version="1.0" encoding="UTF-8" standalone="no"?>
<svg
   xmlns:dc="http://purl.org/dc/elements/1.1/"
   xmlns:cc="http://creativecommons.org/ns#"
   xmlns:rdf="http://www.w3.org/1999/02/22-rdf-syntax-ns#"
   xmlns:svg="http://www.w3.org/2000/svg"
   xmlns="http://www.w3.org/2000/svg"
   xmlns:sodipodi="http://sodipodi.sourceforge.net/DTD/sodipodi-0.dtd"
   xmlns:inkscape="http://www.inkscape.org/namespaces/inkscape"
   sodipodi:docname="twitter.svg"
   inkscape:version="1.0 (4035a4fb49, 2020-05-01)"
   id="svg8"
   version="1.1"
   viewBox="0 0 210 297"
   height="297mm"
   width="210mm">
  <defs
     id="defs2" />
  <sodipodi:namedview
     inkscape:window-maximized="0"
     inkscape:window-y="0"
     inkscape:window-x="78"
     inkscape:window-height="728"
     inkscape:window-width="1260"
     showgrid="false"
     inkscape:document-rotation="0"
     inkscape:current-layer="layer1"
     inkscape:document-units="mm"
     inkscape:cy="560"
     inkscape:cx="317.64445"
     inkscape:zoom="0.35"
     inkscape:pageshadow="2"
     inkscape:pageopacity="0.0"
     borderopacity="1.0"
     bordercolor="#666666"
     pagecolor="#ffffff"
     id="base" />
  <metadata
     id="metadata5">
    <rdf:RDF>
      <cc:Work
         rdf:about="">
        <dc:format>image/svg+xml</dc:format>
        <dc:type
           rdf:resource="http://purl.org/dc/dcmitype/StillImage" />
        <dc:title></dc:title>
      </cc:Work>
    </rdf:RDF>
  </metadata>
  <g
     id="layer1"
     inkscape:groupmode="layer"
     inkscape:label="Capa 1">
    <path
       style="fill:#1da1f2;fill-opacity:0.596078;stroke-width:1.6676"
       d="m 102.50673,123.60876 c -11.199749,0 -20.280248,8.8411 -20.280248,19.74571 0,10.90455 9.080499,19.74571 20.280248,19.74571 11.19981,0 20.28025,-8.84116 20.28025,-19.74571 0,-10.90461 -9.08044,-19.74571 -20.28025,-19.74571 z m 10.25172,15.87057 c 0.30915,6.64775 -4.78276,14.05895 -13.797344,14.05895 -2.741255,0 -5.291455,-0.78324 -7.439504,-2.12432 2.575624,0.29602 5.14614,-0.40114 7.185981,-1.95648 -2.122688,-0.0373 -3.915782,-1.40521 -4.536006,-3.2827 0.762224,0.14179 1.512555,0.10013 2.193652,-0.0808 -2.333921,-0.45772 -3.946187,-2.50443 -3.893809,-4.69456 0.655746,0.35386 1.402689,0.56594 2.198706,0.59081 -2.161526,-1.40688 -2.773317,-4.18609 -1.502401,-6.31041 2.393065,2.8598 5.970821,4.74058 10.004905,4.93805 -0.70812,-2.95527 1.5954,-5.80357 4.73037,-5.80357 1.39426,0 2.65668,0.57403 3.54231,1.4924 1.10522,-0.21082 2.14632,-0.60573 3.08259,-1.14687 -0.36345,1.10415 -1.13231,2.02887 -2.13451,2.61465 0.98189,-0.11505 1.91817,-0.3688 2.78686,-0.74536 -0.64896,0.95108 -1.47033,1.7837 -2.4218,2.45008 z"
       id="path843" />
  </g>
</svg>
